<?xml version="1.0" standalone="no"?>
<!DOCTYPE svg PUBLIC "-//W3C//DTD SVG 20010904//EN"
 "http://www.w3.org/TR/2001/REC-SVG-20010904/DTD/svg10.dtd">
<svg version="1.0" xmlns="http://www.w3.org/2000/svg"
 width="128.000000pt" height="128.000000pt" viewBox="0 0 128.000000 128.000000"
 preserveAspectRatio="xMidYMid meet">
<metadata>
Created by potrace 1.11, written by Peter Selinger 2001-2013
</metadata>
<g transform="translate(0.000000,128.000000) scale(0.100000,-0.100000)"
fill="#000000" stroke="none">
<path d="M501 1153 c-18 -8 -70 -67 -90 -103 -9 -16 -29 -49 -45 -74 -26 -42
-28 -54 -27 -132 1 -47 6 -94 11 -105 9 -16 7 -19 -10 -19 -41 0 -20 -77 49
-180 9 -14 24 -42 34 -63 16 -35 16 -42 2 -83 -14 -40 -14 -52 0 -103 8 -33
27 -72 44 -92 74 -86 82 -94 73 -74 -7 18 -8 28 -3 51 0 4 17 -6 36 -20 19
-15 35 -22 35 -17 0 18 20 12 27 -6 12 -34 25 -44 39 -32 16 13 9 55 -12 80
-8 8 -14 23 -14 32 0 9 -4 18 -9 21 -18 12 -4 42 32 65 29 19 34 27 26 38 -6
7 -18 13 -25 13 -8 0 -14 5 -14 11 0 5 -4 7 -10 4 -15 -9 -12 27 4 47 7 10 16
15 19 11 4 -3 7 1 7 9 0 9 -12 19 -26 22 -33 9 -25 17 29 33 42 13 42 13 6 9
-44 -5 -64 6 -55 30 6 15 9 16 16 4 17 -28 20 -3 3 31 -11 20 -19 65 -21 111
-3 50 -9 81 -18 89 -8 6 -14 21 -14 33 0 12 -11 33 -25 48 -14 15 -21 29 -16
33 5 3 16 -3 23 -13 23 -32 42 -37 22 -6 -10 16 -23 33 -29 37 -7 6 -6 10 1
13 6 3 28 13 48 24 21 10 44 16 51 13 8 -2 38 4 67 15 50 19 55 19 74 3 25
-20 33 -53 49 -196 7 -60 13 -95 14 -77 0 19 6 32 15 32 8 0 13 11 13 28 0 15
3 66 7 114 l7 87 -53 66 c-43 54 -65 72 -124 100 -39 19 -80 34 -90 34 -11 -1
-46 2 -79 5 -33 3 -66 3 -74 -1z m34 -13 c-3 -5 -14 -10 -23 -9 -14 0 -13 2 3
9 27 11 27 11 20 0z m200 -58 c-3 -3 -11 0 -18 7 -9 10 -8 11 6 5 10 -3 15 -9
12 -12z m76 -29 c13 -16 12 -17 -3 -4 -10 7 -18 15 -18 17 0 8 8 3 21 -13z"/>
<path d="M735 783 c-11 -3 -24 -9 -29 -14 -5 -4 -18 -3 -28 2 -11 6 -22 8 -25
5 -10 -9 8 -26 28 -26 11 0 17 -5 14 -10 -10 -17 4 -48 26 -53 16 -4 18 -3 8
9 -9 11 -7 14 10 14 11 0 21 5 21 11 0 6 9 8 23 4 21 -6 21 -6 3 9 -11 9 -31
16 -45 17 l-26 1 28 11 c15 6 27 14 27 19 0 8 -3 9 -35 1z"/>
<path d="M700 601 c0 -13 29 -35 37 -28 7 8 -15 37 -28 37 -5 0 -9 -4 -9 -9z"/>
<path d="M670 570 c0 -5 5 -10 10 -10 6 0 10 5 10 10 0 6 -4 10 -10 10 -5 0
-10 -4 -10 -10z"/>
<path d="M738 503 c7 -3 16 -2 19 1 4 3 -2 6 -13 5 -11 0 -14 -3 -6 -6z"/>
<path d="M818 322 c-10 -67 -54 -146 -124 -222 -35 -39 -64 -77 -64 -86 0 -8
35 26 79 76 65 75 83 103 101 159 12 38 20 79 18 92 -2 17 -6 11 -10 -19z"/>
<path d="M425 144 c-11 -9 -32 -20 -47 -26 -16 -5 -28 -14 -28 -18 0 -12 30
-21 43 -13 6 4 8 0 4 -9 -4 -12 -1 -14 15 -10 13 3 18 11 15 22 -3 12 0 16 12
13 12 -3 17 4 18 27 2 34 -3 36 -32 14z"/>
</g>
</svg>
